<svg xmlns="http://www.w3.org/2000/svg" width="59" height="59" viewBox="0 0 59 59">
  <g id="discord" transform="translate(-1720 345)">
    <path id="discord-2" data-name="discord" d="M38.372,45.248l-3.024-2.8-3.2-2.976L33.474,44.1H5.124A5.138,5.138,0,0,1,0,38.95V5.15A5.138,5.138,0,0,1,5.124,0h33.5A5.137,5.137,0,0,1,43.75,5.15V50ZM27.327,30.621c.747.956,1.647,2.029,1.647,2.029,5.526-.176,7.65-3.8,7.65-3.8a33.472,33.472,0,0,0-3.6-14.574A12.345,12.345,0,0,0,26,11.652l-.35.4a16.661,16.661,0,0,1,6.226,3.173,20.41,20.41,0,0,0-7.526-2.4,21.159,21.159,0,0,0-5.048.05,2.543,2.543,0,0,0-.426.05A18.816,18.816,0,0,0,13.2,14.5c-.924.424-1.477.724-1.477.724A16.909,16.909,0,0,1,18.3,11.95l-.25-.3a12.348,12.348,0,0,0-7.024,2.627,33.467,33.467,0,0,0-3.6,14.574s2.1,3.623,7.621,3.8c0,0,.926-1.129,1.677-2.076a7.781,7.781,0,0,1-4.377-2.95s.25.174.7.421a.322.322,0,0,0,.1.079c.074.049.148.07.224.126a14.093,14.093,0,0,0,1.823.844,20.845,20.845,0,0,0,3.674,1.079,17.574,17.574,0,0,0,6.476.027,16.82,16.82,0,0,0,3.623-1.074,14.476,14.476,0,0,0,2.876-1.48A7.9,7.9,0,0,1,27.327,30.621Zm-3.4-6.868a2.558,2.558,0,1,1,2.55,2.777,2.663,2.663,0,0,1-2.55-2.777Zm-9.127,0a2.664,2.664,0,0,1,2.551-2.776A2.642,2.642,0,0,1,19.9,23.753a2.666,2.666,0,0,1-2.547,2.777A2.684,2.684,0,0,1,14.8,23.753Z" transform="translate(1727.625 -340.5)" fill="#fff"/>
    <rect id="Rectangle_30" data-name="Rectangle 30" width="59" height="59" transform="translate(1720 -345)" fill="none"/>
  </g>
</svg>
