<svg xmlns="http://www.w3.org/2000/svg" width="59" height="59" viewBox="0 0 59 59">
  <g id="twitter" transform="translate(-1846 345)">
    <path id="twitter-2" data-name="twitter" d="M44.941,6.323a19.209,19.209,0,0,1-5.309,1.455,9.162,9.162,0,0,0,4.053-5.092,18.412,18.412,0,0,1-5.842,2.23,9.213,9.213,0,0,0-15.937,6.3,9.487,9.487,0,0,0,.213,2.1A26.077,26.077,0,0,1,3.129,3.68,9.227,9.227,0,0,0,5.96,15.994,9.1,9.1,0,0,1,1.8,14.859v.1a9.255,9.255,0,0,0,7.382,9.053,9.2,9.2,0,0,1-2.416.3,8.145,8.145,0,0,1-1.744-.157,9.3,9.3,0,0,0,8.609,6.418A18.51,18.51,0,0,1,2.2,34.506,17.258,17.258,0,0,1,0,34.38a25.937,25.937,0,0,0,14.134,4.135c16.954,0,26.223-14.044,26.223-26.217,0-.407-.014-.8-.034-1.191a18.381,18.381,0,0,0,4.618-4.783Z" transform="translate(1855 -337.001)" fill="#fff"/>
    <rect id="Rectangle_32" data-name="Rectangle 32" width="59" height="59" transform="translate(1846 -345)" fill="none"/>
  </g>
</svg>
