<svg xmlns="http://www.w3.org/2000/svg" width="42.022" height="42.022" viewBox="0 0 42.022 42.022">
  <g id="left" transform="translate(0 0)">
    <g id="Icon-Set-Filled" transform="translate(0 0)">
      <path id="chevron-right-square" d="M272.818,1007.031l11.782,11.744a1.327,1.327,0,1,0,1.877-1.878l-10.911-10.865,10.911-10.873a1.316,1.316,0,0,0,0-1.869,1.333,1.333,0,0,0-1.877,0l-11.782,11.741a1.519,1.519,0,0,0,0,2ZM263.253,985h31.516a5.253,5.253,0,0,1,5.253,5.253v31.516a5.252,5.252,0,0,1-5.253,5.253H263.253a5.252,5.252,0,0,1-5.253-5.253V990.253A5.253,5.253,0,0,1,263.253,985Z" transform="translate(-258 -985)" fill="#dc7107" fill-rule="evenodd"/>
    </g>
  </g>
</svg>
