<?xml version="1.0" encoding="utf-8"?>
<!-- Generator: Adobe Illustrator 25.3.1, SVG Export Plug-In . SVG Version: 6.00 Build 0)  -->
<svg version="1.1" id="Layer_1" xmlns="http://www.w3.org/2000/svg" xmlns:xlink="http://www.w3.org/1999/xlink" x="0px" y="0px"
	 viewBox="0 0 24 24" style="enable-background:new 0 0 24 24;" xml:space="preserve">
<style type="text/css">
	.st0{fill:#FF9433;}
</style>
<g>
	<path  d="M18.3,18.5H5.7c-1.1,0-2-0.9-2-2s0.9-2,2-2h12.7c1.1,0,2,0.9,2,2S19.4,18.5,18.3,18.5z M5.7,15.5
		c-0.6,0-1,0.4-1,1s0.4,1,1,1h12.7c0.6,0,1-0.4,1-1s-0.4-1-1-1H5.7z"
		/>
</g>
<g>
	<path  d="M18.3,14H5.7c-1.1,0-2-0.9-2-2c0-1.1,0.9-2,2-2h12.7c1.1,0,2,0.9,2,2C20.3,13.1,19.4,14,18.3,14z M5.7,11
		c-0.6,0-1,0.4-1,1s0.4,1,1,1h12.7c0.6,0,1-0.4,1-1s-0.4-1-1-1H5.7z"/>
</g>
<g>
	<path  d="M18.3,9.5H5.7c-1.1,0-2-0.9-2-2s0.9-2,2-2h12.7c1.1,0,2,0.9,2,2S19.4,9.5,18.3,9.5z M5.7,6.5c-0.6,0-1,0.4-1,1
		s0.4,1,1,1h12.7c0.6,0,1-0.4,1-1s-0.4-1-1-1H5.7z"/>
</g>
</svg>
