<svg id="right_" data-name="right " xmlns="http://www.w3.org/2000/svg" width="42.022" height="42.022" viewBox="0 0 42.022 42.022">
  <g id="Icon-Set-Filled">
    <path id="chevron-right-square" d="M285.2,1007.031l-11.782,11.744a1.327,1.327,0,0,1-1.877-1.878l10.911-10.865-10.911-10.873a1.316,1.316,0,0,1,0-1.869,1.333,1.333,0,0,1,1.877,0l11.782,11.741a1.519,1.519,0,0,1,0,2ZM294.769,985H263.253A5.253,5.253,0,0,0,258,990.253v31.516a5.252,5.252,0,0,0,5.253,5.253h31.516a5.252,5.252,0,0,0,5.253-5.253V990.253A5.253,5.253,0,0,0,294.769,985Z" transform="translate(-258 -985)" fill="#dc7107" fill-rule="evenodd"/>
  </g>
</svg>
