<svg xmlns="http://www.w3.org/2000/svg" width="23.961" height="30.075" viewBox="0 0 23.961 30.075">
  <g id="up_page" data-name="up page" transform="translate(-1798 -5311.443)">
    <g id="Page-1" transform="translate(1797.996 5326.496)">
      <g id="Icon-Set-Filled" transform="translate(-521 -1202)">
        <path id="chevron-up" d="M544.345,1213.39l-9.73-10.79a2.484,2.484,0,0,0-3.261,0l-9.73,10.79a2.124,2.124,0,0,0,3,3.01l8.363-9.27,8.365,9.27a2.114,2.114,0,0,0,3,0,2.136,2.136,0,0,0,0-3.01" fill="#fff" fill-rule="evenodd"/>
      </g>
    </g>
    <g id="Page-1-2" data-name="Page-1" transform="translate(1797.996 5311.458)">
      <g id="Icon-Set-Filled-2" data-name="Icon-Set-Filled" transform="translate(-521 -1202)">
        <path id="chevron-up-2" data-name="chevron-up" d="M544.345,1213.39l-9.73-10.79a2.484,2.484,0,0,0-3.261,0l-9.73,10.79a2.124,2.124,0,0,0,3,3.01l8.363-9.27,8.365,9.27a2.114,2.114,0,0,0,3,0,2.136,2.136,0,0,0,0-3.01" fill="#fff" fill-rule="evenodd"/>
      </g>
    </g>
  </g>
</svg>
